<?xml version="1.0" encoding="utf-8"?>
<!-- Generator: Adobe Illustrator 25.3.1, SVG Export Plug-In . SVG Version: 6.00 Build 0)  -->
<svg version="1.1" id="Layer_2" xmlns="http://www.w3.org/2000/svg" xmlns:xlink="http://www.w3.org/1999/xlink" x="0px" y="0px"
	 viewBox="0 0 379.9 391.4" style="enable-background:new 0 0 379.9 391.4;" xml:space="preserve">
<g>
	<g>
		<path d="M88.4,169.7c-10.3,0-20.5,0-30.8,0c-8,0-15.9,0-23.9,0c-4.9,0-10.2-0.6-15.1,0c-0.2,0-1.3-0.2-1.4,0
			c-0.4,0.4,0.6,1.6,1.2,1.3c0.2-0.1,0-2.9,0-3.2c0-4.9,0-9.9,0-14.8c0-15.5,0-31.1,0-46.6c0-6.6,0-13.3,0-19.9c0-2.3,0-4.6,0-6.9
			c0-0.8,0.5-3.4,0-4.1c-0.4-0.6-1.7,0.4-0.8,1c1,0.6,4.1,0,5.2,0c6.4,0,12.7,0,19.1,0c14.1,0,28.2,0,42.3,0c0.5,0,3.6,0.4,4,0
			c-0.9,1-0.5-2.8-1.2-0.1c-0.9,3.5,0,8.6,0,12.2c0,17.1,0,34.1,0,51.2c0,7.3,0,14.6,0,21.8c0,2.3,0,4.6,0,6.9c0,0.6,0.1,1.3,0,1.9
			c-0.1,1.2-0.1-0.1,0.1-0.2c-1.7,1.7,0.9,4.4,2.7,2.7c1.8-1.8,1-5.5,1-7.8c0-6.1,0-12.3,0-18.4c0-16.4,0-32.9,0-49.3
			c0-5.9,0-11.8,0-17.7c0-2.5,0.8-6.1-2.3-6.9c-2.9-0.8-7.1,0-10.1,0c-7.7,0-15.5,0-23.2,0c-8.1,0-16.2,0-24.3,0
			c-4.3,0-9.2-0.7-13.4,0c-2.9,0.5-2.7,2.4-2.7,4.8c0,5.1,0,10.1,0,15.2c0,16.4,0,32.9,0,49.3c0,6.7,0,13.4,0,20.1
			c0,2.6-0.7,6.2,0,8.8c0.8,3.2,4.7,2.3,7.3,2.3c6.8,0,13.6,0,20.4,0c14.4,0,28.8,0,43.2,0c1,0,1.9,0,2.9,0
			C90.8,173.4,90.8,169.7,88.4,169.7z"/>
	</g>
</g>
<g>
	<g>
		<path d="M65.8,97.5c-4.6,0-9.2,0-13.8,0c-2.4,0-2.4,3.8,0,3.8c4.6,0,9.2,0,13.8,0C68.2,101.3,68.2,97.5,65.8,97.5L65.8,97.5z"/>
	</g>
</g>
<g>
	<g>
		<path d="M65.8,120.5c-8.6,0-17.2,0-25.9,0c-2.4,0-2.4,3.8,0,3.8c8.6,0,17.2,0,25.9,0C68.2,124.3,68.2,120.5,65.8,120.5L65.8,120.5
			z"/>
	</g>
</g>
<g>
	<g>
		<path d="M237.6,109.8c-6.3,8.2-12.5,16.5-18.8,24.7c-1.5,1.9,1.8,3.8,3.2,1.9c6.3-8.2,12.5-16.5,18.8-24.7
			C242.3,109.8,239.1,107.9,237.6,109.8L237.6,109.8z"/>
	</g>
</g>
<g>
	<g>
		<path d="M262.2,139.1c-8.2,6.3-16.5,12.5-24.7,18.8c-1.9,1.4,0,4.7,1.9,3.2c8.2-6.3,16.5-12.5,24.7-18.8
			C266,140.9,264.2,137.6,262.2,139.1L262.2,139.1z"/>
	</g>
</g>
<g>
	<g>
		<path d="M287.4,175.4c-10.5,1.9-21,3.9-31.5,5.8c-2.4,0.4-1.4,4.1,1,3.6c10.5-1.9,21-3.9,31.5-5.8
			C290.7,178.6,289.7,175,287.4,175.4L287.4,175.4z"/>
	</g>
</g>
<g>
	<g>
		<path d="M65.8,144.5c-8.6,0-17.2,0-25.9,0c-2.4,0-2.4,3.8,0,3.8c8.6,0,17.2,0,25.9,0C68.2,148.3,68.2,144.5,65.8,144.5L65.8,144.5
			z"/>
	</g>
</g>
<g>
	<g>
		<path d="M206.8,63.2c-0.3,19.3-12.3,37-30.7,43.5c-18.2,6.4-38.8,0.6-51-14.2C113,77.8,111.3,56.4,121,39.9
			c9.8-16.8,29.7-25.7,48.8-22C191.3,22.2,206.5,41.5,206.8,63.2c0,2.4,3.8,2.4,3.8,0c-0.3-20.8-13.1-39.6-32.8-46.8
			c-19.9-7.3-43-0.7-56.1,16c-12.8,16.3-14.2,39.5-3.3,57.2c10.9,17.6,32.1,26.6,52.4,22.6c23.2-4.7,39.5-25.5,39.8-48.8
			C210.6,60.8,206.9,60.8,206.8,63.2z"/>
	</g>
</g>
<g>
	<g>
		<path d="M147.6,47.6c0,10.7,0,21.4,0,32.2c0,1.5,1.6,2.3,2.8,1.6c11.2-5.8,22.5-11.6,33.7-17.4c1.2-0.6,1.3-2.7,0-3.2
			c-11.2-4.9-22.5-9.9-33.7-14.8c-2.2-1-4.1,2.3-1.9,3.2c11.2,4.9,22.5,9.9,33.7,14.8c0-1.1,0-2.2,0-3.2
			c-11.2,5.8-22.5,11.6-33.7,17.4c0.9,0.5,1.9,1.1,2.8,1.6c0-10.7,0-21.4,0-32.2C151.4,45.2,147.6,45.2,147.6,47.6z"/>
	</g>
</g>
<g>
	<g>
		<path d="M270.4,46.1c0-5.4-1.2-12.7,2-17.4c3.2-4.6,8-4.9,13-4.9c11.5,0,23,0,34.5,0c10,0,20.1-0.2,30.1,0
			c6.9,0.2,12.2,4.3,12.5,11.5c0.1,2.8,0,5.7,0,8.6c0,12.7,0,25.4,0,38.1c0,5.2,0,10.4,0,15.7c0,4,0.4,8-2,11.5
			c-5.1,7.5-19.6,4.9-27.3,4.9c-12.8,0-25.6,0-38.4,0c-4.1,0-8.2,0.1-12.3,0c-7.7-0.2-11.9-5.6-12-13c-0.2-11.3,0-22.7,0-34
			c0-2.4-3.8-2.4-3.8,0c0,11.2,0,22.3,0,33.5c0,6.3,2,12.1,7.9,15.4c3.7,2,7.6,1.9,11.6,1.9c13.2,0,26.4,0,39.7,0
			c6.3,0,12.5,0,18.8,0c3.2,0,6.6,0.3,9.8-0.3c13.2-2.8,11.9-16.2,11.9-26.5c0-14.2,0-28.4,0-42.5c0-9.9,1.9-22.7-9.5-27.3
			c-3.5-1.4-7.4-1.1-11.1-1.1c-6,0-12,0-18.1,0c-14.3,0-28.6,0-43,0c-5.7,0-11,1-14.8,5.7c-4.5,5.7-3.3,13.6-3.3,20.3
			C266.6,48.5,270.4,48.5,270.4,46.1L270.4,46.1z"/>
	</g>
</g>
<g>
	<g>
		<path d="M362.5,277.7c0,5.1,1.3,12.5-1.4,17.1c-2.9,5-7.9,5.2-12.9,5.2c-11.6,0-23.2,0-34.7,0c-10.4,0-20.8,0.2-31.1,0
			c-6.5-0.1-11.6-3.7-11.9-10.7c-0.1-3,0-6.1,0-9.2c0-12.8,0-25.6,0-38.4c0-5.3,0-10.6,0-15.9c0-3.6-0.5-7.6,1.4-10.8
			c4.7-8,20.1-5.2,27.8-5.2c12.9,0,25.8,0,38.7,0c4.3,0,8.6-0.1,12.9,0c7.5,0.2,11.2,5.5,11.2,12.6c0,11.5,0,22.9,0,34.4
			c0,2.4,3.8,2.4,3.8,0c0-11.5,0-22.9,0-34.4c0-6.3-2.1-12.1-8.2-15c-3.5-1.6-7.2-1.4-10.9-1.4c-13.4,0-26.7,0-40.1,0
			c-6.5,0-12.9,0-19.4,0c-3.2,0-6.8-0.4-10,0.4c-12.8,2.9-11.1,16.3-11.1,26.2c0,14.3,0,28.6,0,42.9c0,9.7-2.2,23,9.2,27.3
			c3.5,1.3,7.3,0.9,10.9,0.9c6.1,0,12.2,0,18.3,0c14.6,0,29.3,0,43.9,0c5.6,0,10.9-1,14.5-6c3.9-5.5,2.6-13.6,2.6-20.1
			C366.2,275.3,362.5,275.3,362.5,277.7L362.5,277.7z"/>
	</g>
</g>
<g>
	<g>
		<path d="M312.8,91.6c0-11,0-21.9,0-32.9c0-2.3-0.4-5.3,0-7.5c1.3-6.8,12.8-5.1,17.4-4.4c2.4,0.3,3.4-3.3,1-3.6
			c-6.4-0.9-16.5-2.2-20.8,4.1c-1.5,2.2-1.4,4.4-1.4,6.9c0,12.5,0,25,0,37.5C309,94,312.8,94,312.8,91.6L312.8,91.6z"/>
	</g>
</g>
<g>
	<g>
		<path d="M298.8,70.8c8.4,0,16.8,0,25.2,0c2.4,0,2.4-3.8,0-3.8c-8.4,0-16.8,0-25.2,0C296.4,67.1,296.4,70.8,298.8,70.8L298.8,70.8z
			"/>
	</g>
</g>
<g>
	<g>
		<path d="M332.6,255c-0.3,8.4-6.8,15.4-15.4,15.4c-8.4,0-15.4-7-15.4-15.4c0-8.4,7-15.4,15.4-15.4
			C325.8,239.6,332.2,246.6,332.6,255c0.1,2.4,3.8,2.4,3.8,0c-0.4-10.4-8.4-19.1-19.2-19.2c-10.4,0-19.2,8.8-19.2,19.2
			c0,10.4,8.7,19.2,19.2,19.2c10.7,0,18.8-8.7,19.2-19.2C336.4,252.6,332.7,252.6,332.6,255z"/>
	</g>
</g>
<g>
	<g>
		<path d="M201.4,158.5c-2.4-3.8-6.1-14.1-11.9-10.3c-3.1,2-6,4.8-8.9,7.2c-13.9,11.3-27.9,22.5-41.8,33.8
			c-9.9,8-19.5,16.6-29.8,24.1c-9,6.6-21.5,12.4-31.1,19.5c-4.9,3.6-7,10.2-6.5,16.1c0.6,7.5,4.7,13.7,8.6,19.9
			c3.2,5.1,6.4,10.7,10.7,15.1c2.8,2.8,6.1,4.9,10.1,5.2c5.6,0.4,9.3-2.1,13.9-5c7.3-4.5,15.4-10.3,22.8-13.9
			c11.1-5.3,23.4-8.9,34.8-13.2c17.1-6.5,34.3-13,51.4-19.5c4.4-1.7,9-3.1,13.3-5c4.3-2,3.3-5.1,1.4-8.4
			c-8.1-14.4-16.2-28.7-24.3-43.1c-0.8-1.3-1.5-2.7-2.3-4c-1.2-2.1-4.4-0.2-3.2,1.9c6.6,11.8,13.3,23.6,19.9,35.4
			c1.8,3.2,3.6,6.4,5.4,9.5c0.4,0.8,2.8,3.7,2.6,4.6c-0.2,1-5.5,2.4-6.7,2.8c-29,11-57.9,22-86.9,32.9
			c-12.3,4.7-22.9,12.3-34.1,19.2c-11.8,7.2-19.3-6.6-24.6-15c-5.4-8.5-14.4-22.3-5.1-31.5c3-3,8.3-5.4,12.1-7.8
			c6.3-3.9,12.8-7.7,19-11.9c6.9-4.6,13.2-10.5,19.7-15.7c13.7-11.1,27.4-22.1,41.1-33.2c5.2-4.2,10.5-8.5,15.7-12.7
			c1.4-1.2,2.9-2.7,4.5-3.6c1.5-0.9,0.5-1,1.7-0.1c2.3,1.7,3.9,6.3,5.5,8.8C199.4,162.5,202.7,160.6,201.4,158.5L201.4,158.5z"/>
	</g>
</g>
<g>
	<g>
		<path d="M75.6,271.8c2.2,3.7,4.5,7.4,6.7,11.1c0.2-0.9,0.4-1.7,0.7-2.6c-5.4,3.1-20.7,9.2-24.5,0.5c-3.3-7.8,7.6-16.2,13-19.5
			c-0.9-0.2-1.7-0.4-2.6-0.7C71.2,264.4,73.4,268.1,75.6,271.8c1.2,2.1,4.5,0.2,3.2-1.9c-2.2-3.7-4.4-7.4-6.6-11.2
			c-0.5-0.9-1.7-1.2-2.6-0.7c-7.3,4.4-19.4,15-14.3,24.9c5.4,10.5,22.1,4.9,29.5,0.6c0.9-0.5,1.2-1.7,0.7-2.6
			c-2.2-3.7-4.5-7.4-6.7-11.1C77.6,267.9,74.3,269.8,75.6,271.8z"/>
	</g>
</g>
<g>
	<g>
		<path d="M137.8,281.9c4.2-2.7,8.5-5.3,12.7-8c-0.9-0.2-1.7-0.4-2.6-0.7c4.8,8.3,8.9,17.1,11.2,26.4c1,4,3.8,15.4-1.9,17.5
			c-4.8,1.7-11.6-4.8-14.6-7.6c-6.9-6.5-12.3-14.3-17.1-22.5c-0.2,0.9-0.4,1.7-0.7,2.6C129.2,287,133.5,284.4,137.8,281.9
			c2.1-1.2,0.2-4.5-1.9-3.2c-4.3,2.6-8.6,5.1-12.9,7.7c-0.9,0.5-1.2,1.7-0.7,2.6c5.6,9.6,12.3,19.1,21,26.2c4,3.3,10.4,7.8,15.9,5.3
			c5.6-2.6,5.3-10.6,4.6-15.7c-1.5-11.8-6.8-23.2-12.7-33.3c-0.5-0.9-1.7-1.2-2.6-0.7c-4.2,2.7-8.5,5.3-12.7,8
			C133.9,279.9,135.8,283.2,137.8,281.9z"/>
	</g>
</g>
<g>
	<g>
		<path d="M106.4,218.6c5.8,9.8,11.6,19.7,17.4,29.5c1.2,2.1,4.5,0.2,3.2-1.9c-5.8-9.8-11.6-19.7-17.4-29.5
			C108.4,214.6,105.2,216.5,106.4,218.6L106.4,218.6z"/>
	</g>
</g>
<g>
	<g>
		<path d="M90.6,199c-18.7,0-37.4,0-56.2,0c-1,0-1.9,0.9-1.9,1.9c0,38.4,0,76.7,0,115.1c0,5.5,0,11.1,0,16.6
			c0.6-0.6,1.2-1.2,1.9-1.9c-6,0-12,0-18,0c-1.1,0-1.7,0.9-1.9,1.9c-1.8,13.9,0.4,36,17.7,38.4c6.7,0.9,13.9,0.2,20.6,0.2
			c10.3,0,20.7,0,31,0c24.2,0,48.3,0,72.5,0c14.4,0,28.9,0.6,43.3,0c18.7-0.7,24.2-23.1,24.3-38.1c0-1-0.9-1.9-1.9-1.9
			c-55.6,0-111.1,0-166.7,0c-6.3,0-12.5,0-18.8,0c-2.4,0-2.4,3.8,0,3.8c49.1,0,98.1,0,147.2,0c12.8,0,25.5,0,38.3,0
			c-0.6-0.6-1.2-1.2-1.9-1.9c-0.1,12.9-4.3,33.5-20.4,34.4c-12.5,0.7-25.3,0-37.8,0c-40.5,0-81,0-121.4,0c-3.7,0-7.6,0.4-11.1-0.9
			c-5.4-2-8.4-7.1-9.9-12.3c-2-6.9-2.3-14.5-1.3-21.6c-0.6,0.6-1.2,1.2-1.9,1.9c6,0,12,0,18,0c1,0,1.9-0.9,1.9-1.9
			c0-38.4,0-76.7,0-115.1c0-5.5,0-11.1,0-16.6c-0.6,0.6-1.2,1.2-1.9,1.9c18.7,0,37.4,0,56.2,0C93.1,202.7,93.1,199,90.6,199
			L90.6,199z"/>
	</g>
</g>
<g>
	<g>
		<path d="M200.6,277.8c0,16.3,0,32.5,0,48.8c0,2.4,3.8,2.4,3.8,0c0-16.3,0-32.5,0-48.8C204.3,275.4,200.6,275.3,200.6,277.8
			L200.6,277.8z"/>
	</g>
</g>
<g>
	<g>
		<path d="M180.3,369.4c0-4.4,0-8.9,0-13.3c0-2.4-3.8-2.4-3.8,0c0,4.4,0,8.9,0,13.3C176.6,371.8,180.3,371.8,180.3,369.4
			L180.3,369.4z"/>
	</g>
</g>
<g>
	<g>
		<path d="M60.8,369.4c0-4.4,0-8.9,0-13.3c0-2.4-3.8-2.4-3.8,0c0,4.4,0,8.9,0,13.3C57,371.8,60.8,371.8,60.8,369.4L60.8,369.4z"/>
	</g>
</g>
</svg>
