<?xml version="1.0" encoding="utf-8"?>
<!-- Generator: Adobe Illustrator 25.3.1, SVG Export Plug-In . SVG Version: 6.00 Build 0)  -->
<svg version="1.1" xmlns="http://www.w3.org/2000/svg" xmlns:xlink="http://www.w3.org/1999/xlink" x="0px" y="0px"
	 viewBox="0 0 327 55" style="enable-background:new 0 0 327 55;" xml:space="preserve">
<style type="text/css">
	.st0{fill:#FFFFFF;stroke:#000000;stroke-width:2;stroke-miterlimit:10;}
</style>
<g id="Layer_1">
	<g>
		<path class="st0" d="M51.4,42V13.9c0-2.3-0.6-4.3-1.7-5.9h21.7l15.4,31.9v-26c0-2.4-0.6-4.3-1.7-5.9h10c-1.1,1.6-1.7,3.5-1.7,5.9
			V48H74L57.9,15.5V42c0,2.4,0.6,4.3,1.7,5.9h-10c0.3-0.4,0.6-1.1,1.1-2.1C51.1,44.9,51.4,43.6,51.4,42z"/>
		<path class="st0" d="M102.4,36.5V13.9c0-2.3-0.6-4.3-1.7-5.9h18.5c-1.1,1.6-1.7,3.6-1.7,5.9v22.8c0,1.2,0.1,2.1,0.2,2.8
			c0.2,0.6,0.5,1.1,1.1,1.4s1.5,0.5,2.6,0.5h12.4c1.2,0,2-0.2,2.6-0.5c0.6-0.3,0.9-0.8,1.1-1.4c0.2-0.6,0.2-1.6,0.2-2.8V13.9
			c0-2.4-0.6-4.4-1.7-5.9h10c-1.1,1.6-1.7,3.6-1.7,5.9v22.6c0,1.8-0.2,3.4-0.5,4.6c-0.3,1.2-1,2.4-1.9,3.6c-0.9,1.1-2.1,1.9-3.5,2.4
			c-1.4,0.5-2.8,0.8-4.3,0.8h-21.5c-3.4,0-6-1-7.7-3.1C103.2,42.8,102.4,40,102.4,36.5z"/>
		<path class="st0" d="M152,39.6V16.3c0-1.6,0.3-3,0.8-4.2c0.5-1.1,1.3-2,2.3-2.6s2.1-1,3.3-1.2c1.3-0.2,2.6-0.3,4.2-0.3h30.3
			l-0.1,7.8c-1-0.5-1.9-0.9-2.8-1c-0.9-0.1-2.1-0.2-3.7-0.2h-15.2c-1.2,0-2,0.2-2.6,0.5s-1,0.8-1.1,1.4c-0.2,0.6-0.2,1.6-0.2,2.8
			v17.5c0,1.2,0.1,2.1,0.2,2.8c0.2,0.6,0.5,1.1,1.1,1.4s1.5,0.5,2.6,0.5h4.3c1.3,0,2.2-0.3,2.6-0.9c0.4-0.6,0.6-1.6,0.6-3.1v-6.9
			h-3.8c-1.8,0-3.4,0.3-4.8,0.9v-7.3h25.3c-1.1,1.5-1.7,3.5-1.7,5.9v12c0,2.4,0.6,4.4,1.7,5.9h-13.3c-0.3-1-0.5-2.5-0.7-4.4
			c-0.1,1.3-0.5,2.3-1.1,3c-0.6,0.6-1.4,1-2.3,1.2c-0.9,0.1-2.1,0.2-3.7,0.2h-11.6c-3.4,0-6-0.6-7.8-1.7
			C152.9,45.1,152,42.9,152,39.6z"/>
		<path class="st0" d="M198.5,39.6V16.3c0-1.6,0.3-3,0.8-4.2c0.5-1.1,1.3-2,2.3-2.6s2.1-1,3.3-1.2c1.3-0.2,2.6-0.3,4.2-0.3h30.2
			l-0.1,7.8c-1-0.5-1.9-0.9-2.8-1s-2.1-0.2-3.7-0.2h-15.2c-1.2,0-2,0.2-2.6,0.5s-1,0.8-1.1,1.4c-0.2,0.6-0.2,1.6-0.2,2.8v17.5
			c0,1.2,0.1,2.1,0.2,2.8c0.2,0.6,0.5,1.1,1.1,1.4s1.5,0.5,2.6,0.5h4.3c1.3,0,2.2-0.3,2.6-0.9c0.4-0.6,0.6-1.6,0.6-3.1v-6.9h-3.8
			c-1.8,0-3.4,0.3-4.8,0.9v-7.3h25.3c-1.1,1.5-1.7,3.5-1.7,5.9v12c0,2.4,0.6,4.4,1.7,5.9h-13.3c-0.3-1-0.5-2.5-0.7-4.4
			c-0.1,1.3-0.5,2.3-1.1,3c-0.6,0.6-1.4,1-2.3,1.2c-0.9,0.1-2.1,0.2-3.7,0.2h-11.6c-3.4,0-6-0.6-7.8-1.7S198.5,42.9,198.5,39.6z"/>
		<path class="st0" d="M246.3,42V13.9c0-2.3-0.6-4.3-1.7-5.9h18.6c-1.1,1.5-1.7,3.5-1.7,5.9v27.5h14.3c2,0,3.7-0.5,5-1.5l-1.3,8.1
			h-35c0.3-0.4,0.6-1.1,1.1-2.2S246.3,43.5,246.3,42z"/>
		<path class="st0" d="M286.1,42V13.9c0-2.4-0.6-4.3-1.7-5.9h36.4l0,8.9c-1.3-1.6-4.1-2.3-7-2.3h-12.5v9.7h12.2c2.4,0,4.2,0,5.7,0
			v6.5c-1,0-2.5,0-4.6,0h-13.4v10.6h14.8c0.9,0,1.7-0.1,2.4-0.3s2.2-0.6,3.4-2.1v9h-37.4c0.3-0.4,0.6-1.2,1-2.2S286.1,43.5,286.1,42
			z"/>
	</g>
	<g>
		<path d="M39,9.7c-1.1,0.2-2.1,0.5-3.2,0.7c-1.1,0.2-2.1,0.5-3.2,0.3h-6.4H13.3l0.2,0c-0.1,0-0.4,0.2-0.6,0.3
			c-0.2,0.1-0.4,0.3-0.7,0.5c-0.4,0.4-0.8,0.8-1.1,1.3c-0.6,1-1,2.2-1.2,3.4c-0.1,0.6-0.2,1.2-0.2,1.9c0.1,0.6-0.2,1.3-0.3,1.9
			c-0.1,0.7-0.2,1.3-0.3,2c-0.1,0.7-0.1,1.3-0.2,2c-0.4-1.3-0.9-2.6-1.1-4c-0.4-1.4-0.1-2.8,0.1-4.2c0.2-1.4,0.7-2.8,1.5-4.1
			c0.4-0.6,0.9-1.2,1.5-1.8c0.3-0.3,0.6-0.5,1-0.7c0.4-0.2,0.7-0.4,1.2-0.5l0.1,0h0.1h12.9h6.4c1.1-0.1,2.1,0.2,3.2,0.3
			C36.9,9.2,38,9.4,39,9.7z"/>
	</g>
	<path class="st0" d="M14.5,8h29.3v11c0,0-1.4-2-4.3-2.2c-2.5-0.2-10.9-0.1-13.2,0c-0.7,0-1.3,0.1-2,0.4c-0.9,0.4-1.9,1.2-1.9,2.7
		c0,2.4,1.5,3.7,2.8,3.8c1.1,0.1,5.8,0,7.8,0c0.5,0,1-0.1,1.5-0.1c2.1,0.1,11.6,0.2,11.5,11.3c0,6.6-3.2,10.3-6.4,12.3
		c-2.5,1.6-5.4,2.3-8.4,2.3h-25V36.7c0,0,1.4,2.1,3.7,2.2s14.6,0,14.6,0s3.5-0.1,3.6-3.7c0.1-3.7-4.1-4.3-4.6-4.3
		c-0.3,0-4.9-0.1-7.4-0.1c-1.8,0-3.6-0.4-5.2-1.2c-2.7-1.4-6-4.3-6-10.4C4.9,8.8,14.5,8,14.5,8z"/>
	<path d="M41.7,11.1V9.7h-26c-0.1,0-0.1,0-0.2,0c-0.8,0.1-5.9,1-7.4,7.8c0,0.1,0,0.1,0,0.2c-0.2,1.7-0.7,4.1,3.1,8.4
		c-1.2-2.3-2.1-4.3-1.8-7.7c0.2-2.4,1.1-4.7,4.8-6.7c0.7-0.4,1.6-0.6,2.4-0.6C22.7,11.1,41.7,11.1,41.7,11.1z"/>
	<path d="M8.8,47.5h1.5v-4.8l14.8-0.1c0,0,3-0.3,5.2-2.9c0.9-1,1.4-2.2,1.4-3.6c0-1.2-0.3-2.7-1.5-4.1c0.6,2,0.9,3.5,0.3,5.1
		c-0.8,2-2.1,3-4.8,4c-0.7,0.3-1.5,0.4-2.2,0.4c-4.4,0-13.4-0.1-13.4-0.1s-0.8,0-1.4-0.4c0,0,0,0.1,0,0.2L8.8,47.5z"/>
	<path d="M52.9,9.7c0,0,0.8-0.3,0.7,4.6s-0.1,29-0.1,29s-0.1,1.9-0.6,3.1l1.6,0c0,0,0.4-2.3,0.4-3.9s0-26.8,0-26.8V9.7H52.9z"/>
	<path d="M248.6,9.7c0,0,0.8-0.3,0.7,4.6c0,4.9-0.1,29-0.1,29s-0.1,1.9-0.6,3.1l1.2,0c0.1,0,0.7-0.1,0.7-0.2c0.1-0.6,0-2.4,0.1-3.8
		c0.1-1.7,0-26.8,0-26.8V9.9c0-0.1-0.1-0.2-0.2-0.2H248.6z"/>
	<path d="M139.9,35.8c0-1.5,0-21.4,0-21.4V9.6h-1.8c0,0,0.8-0.3,0.7,3.8c0,4.3,0,4,0,25.1"/>
	<path d="M89.9,35.8c0-1.5,0-21.4,0-21.4V9.6h-1.8c0,0,0.8-0.3,0.7,3.8c0,4.3,0,4,0,25.1"/>
	<path d="M76.1,46.3c0.4,0.5,0.5,0.7,2,0.7c1.1,0,2.2,0,2.7,0c0.2,0,0.4,0,0.5-0.3l0.2-1.2c-0.2,0.2-0.5,0.4-1.3,0.4
		c-1.5,0-2,0-2.6-0.3c-1.1-0.5-15.3-29.7-15.3-29.7l-1.7-0.3"/>
	<path d="M211.9,10.2c-2.2,0-11-1.2-11,8.3c0,7.7,0,17.7,0,21.4c0,1.3,0.2,2.4,0.8,3.6c0.6,1.3,2.9,2.3,4.2,2.5
		c-2.4-1.6-3.4-2.4-3.6-5.2c-0.2-2.5-0.2-4.5-0.1-21c0,0-0.9-8.1,7.3-8.4c7.4,0,25.6,0.1,25.6,0.1v-1.3"/>
	<path d="M165.3,10.2c-2.2,0-11.3-1.2-11.3,8.3c0,7.7,0,17.7,0,21.4c0,1.3,0.2,2.4,0.8,3.6c0.7,1.3,2.9,2.3,4.3,2.5
		c-2.5-1.6-3.5-2.4-3.7-5.2c-0.2-2.5-0.2-4.5-0.1-21c0,0-0.9-8.1,7.5-8.4c7.7,0,26.3,0.1,26.3,0.1v-1.3"/>
	<path d="M288.5,10.1h30.8v1.2h-28.9l0,32.2c0,0-0.9,1.5-1.7,2.1c0,0,0.2-0.9,0.3-1.8c0-0.9,0-32.3,0-32.3S288.9,10.5,288.5,10.1z"
		/>
	<path d="M300.5,27.4h17.3V26l-18.3,0.1C299.5,26.1,300.5,27.1,300.5,27.4z"/>
	<path d="M300.9,44.7H319c0,0,1.7-0.9,1.9-1.6c0,0.6-20.9,0.4-21,0.3C300,43.4,300.6,44.6,300.9,44.7z"/>
	<path d="M249,46.4h28.1c0,0-0.1-0.6,0.9-1.8c-1.1,0.4-0.9,0.3-1.7,0.4c-1.2,0-26.9-0.1-26.9-0.1L249,46.4z"/>
	<path d="M113.3,45.2c-6.9-0.3-6.9-8.2-6.9-8.2V9.6h-1.8c0,0,0.5,0.7,0.5,1.9s0,25.8,0,25.8s-0.3,8.8,7.8,9c2.8,0.2,4.9,0.1,4.9,0.1
		s-0.4-0.4-1.2-0.6C115.8,45.5,114.1,45.3,113.3,45.2z"/>
</g>
<g id="Layer_2">
</g>
<g id="Layer_3">
</g>
<g id="Layer_4">
</g>
</svg>
