<?xml version="1.0" encoding="utf-8"?>
<!-- Generator: Adobe Illustrator 25.3.1, SVG Export Plug-In . SVG Version: 6.00 Build 0)  -->
<svg version="1.1" id="Layer_1" xmlns="http://www.w3.org/2000/svg" xmlns:xlink="http://www.w3.org/1999/xlink" x="0px" y="0px"
	 viewBox="0 0 265.3 183.3" style="enable-background:new 0 0 265.3 183.3;" xml:space="preserve">
<style type="text/css">
	.st0{fill:none;stroke:#010101;stroke-width:1.0139;stroke-miterlimit:10;}
	.st1{fill:#010101;}
	.st2{fill:none;stroke:#010101;stroke-width:0.1917;stroke-miterlimit:10;}
	.st3{fill:none;stroke:#010101;stroke-width:9.587071e-02;stroke-miterlimit:10;}
	.st4{fill:none;stroke:#030404;stroke-width:9.587071e-02;stroke-miterlimit:10;}
</style>
<path class="st0" d="M245.7,5c0,0,9,0.8,13.2,4.3c1,1,2.1,1.9,1.7,4.4c-0.2,0.5-0.5,1.7-1,2.1c-0.5,0.2-1.3,0.1-1.4,0.5
	c-0.1,0.4-0.3,0.7-0.3,1.1s0.1,4-0.4,4.6s-0.9,0.7-1,0.8c-0.1,0.2-0.7,1.2-1,2.5c-0.3,1.3-9.9,32-10.5,34c-0.6,2-4.1,12.6-1.7,17.3
	c0.2,0.5,1.5,6.4,0.4,10.3c-1.3,3.8-25.2,62.6-25.2,62.6s-2.8,7.3-3.5,8.5c-0.7,1.2-1.4,3-2.3,3.6c-0.9,0.7-1.6,0.4-3-0.2
	c-1.4-0.6-32.1-13-32.1-13s-1.5-0.4-1-2.7c0.5-2.3,1.6-7,2.8-9.4c1.2-2.4,16.7-38.7,17.3-41c1-2.5,8.4-21.6,8.6-22.2
	s1.2-3.9,4.8-6.1c3.6-2.7,7.8-5.3,10-9.4c2.1-4.1,8.9-18.3,9.2-19.2c0.4-0.9,7.5-15.4,8.1-17c0.6-1.6,1.9-4.6,2.2-5.3
	c0-0.4-0.5-1.4,0.3-2.2c0.7-0.7,2.2-2.4,2.4-2.9s0.8-1.3,0.6-1.4c-0.1,0-0.2-0.2-0.3-0.5c-0.1-0.5-0.1-1.4,0.7-2.6
	C243.7,5.9,244,5.1,245.7,5z"/>
<path class="st1" d="M242.5,9.1c0,0,0.9-0.1,1-0.3c0.1-0.2,0.8-0.5,1.1-0.2c0.3,0.3,1.4,0.6,1.8,0.5c0.4,0,0.9-0.2,1.2,0.1
	s1.5,0.8,1.8,0.7c0.2-0.1,1.4,0,1.3,0.5c0,0.5,1.4,0.4,1.5,0.4c0.1-0.1,0.9,0,1,0.4c0.1,0.3,0.8,0.6,1.1,0.5
	c0.2-0.1,1.2,0.1,1.2,0.5c0,0.4,1.1,0.9,1.3,0.8c0.2-0.1,1.1-0.2,1.1,0.4c0,0.6,0.8,0.1,1.1,0.4c0.3,0.3,0.1,0.6,0.2,0.8
	s0,0.9,0.1,1c0,0,0.7-0.4,0.9-1c0.2-0.6,0.4-2.2,0.4-2.2l-0.4-1.6l-1.1-1.3l-2.4-1.7l-3.3-1.4l-3.9-0.9L245.8,5l-2,0.7l-1.1,1.8
	L242.5,9.1z"/>
<path class="st2" d="M239.4,15.6c0,0-0.2,0.2,0.5,0.5s2.8,0.1,4.2,0.4c1.3,0.3,10.3,3.8,11.3,5.2c1.1,1.5,1,1,1,1"/>
<path class="st2" d="M238.3,19.2c0,0,8.4-0.4,17,6.6"/>
<path class="st2" d="M224.6,48.3c0,0,13.2,1.9,21.1,8.5"/>
<path class="st2" d="M223.1,51.3c0,0,10.6,1,21.6,8.8"/>
<g id="snuggle_3_">
	<g>
		<path class="st3" d="M234.8,36.1l0.6-1.4c0-0.1,0.1-0.2,0-0.3l1.1,0.5l0.1,2l0.5-1.3c0-0.1,0.1-0.2,0-0.3l0.5,0.2
			c-0.1,0.1-0.2,0.1-0.2,0.3l-0.7,1.8l-1-0.4l-0.1-2l-0.6,1.4c0,0.1-0.1,0.2,0,0.3l-0.5-0.2c0,0,0.1,0,0.1-0.1
			C234.8,36.3,234.8,36.2,234.8,36.1z"/>
		<path class="st3" d="M237.6,36.9l0.5-1.2c0-0.1,0.1-0.2,0-0.3l1,0.4c-0.1,0.1-0.2,0.1-0.2,0.3l-0.5,1.2c0,0.1,0,0.1,0,0.1
			c0,0,0,0.1,0,0.1s0.1,0.1,0.1,0.1l0.6,0.3c0.1,0,0.1,0,0.1,0c0,0,0.1,0,0.1-0.1c0,0,0-0.1,0.1-0.1l0.5-1.2c0.1-0.1,0.1-0.2,0-0.3
			l0.5,0.2c-0.1,0.1-0.2,0.2-0.2,0.3l-0.5,1.2c0,0.1-0.1,0.2-0.1,0.2c0,0.1-0.1,0.1-0.2,0.1c-0.1,0-0.1,0.1-0.2,0.1
			c-0.1,0-0.2,0-0.2,0l-1.1-0.4c-0.2-0.1-0.3-0.2-0.3-0.3C237.5,37.2,237.5,37.1,237.6,36.9z"/>
		<path class="st3" d="M240.1,38.1l0.5-1.2c0-0.1,0.1-0.2,0.1-0.2c0.1,0,0.1-0.1,0.2-0.1c0.1,0,0.1,0,0.2,0c0.1,0,0.1,0,0.2,0.1
			l1.6,0.6l-0.2,0.4c0,0-0.1-0.1-0.1-0.1c0,0-0.1-0.1-0.2-0.1l-0.8-0.3c-0.1,0-0.1,0-0.1,0c0,0-0.1,0-0.1,0.1c0,0,0,0.1-0.1,0.1
			l-0.4,0.9c0,0.1,0,0.1,0,0.1c0,0,0,0.1,0,0.1c0,0,0.1,0.1,0.1,0.1l0.2,0.1c0.1,0,0.1,0,0.2,0c0,0,0.1-0.1,0.1-0.1l0.1-0.4
			l-0.2-0.1c-0.1,0-0.2-0.1-0.3-0.1l0.2-0.4l1.3,0.5c-0.1,0.1-0.2,0.1-0.2,0.3l-0.3,0.6c-0.1,0.1-0.1,0.2,0,0.3l-0.7-0.3
			c0-0.1,0-0.1,0.1-0.2c0,0.1-0.1,0.1-0.1,0.1c0,0-0.1,0-0.1,0c0,0-0.1,0-0.2-0.1l-0.6-0.2c-0.2-0.1-0.3-0.2-0.4-0.3
			C240,38.4,240,38.3,240.1,38.1z"/>
		<path class="st3" d="M242.5,39.1l0.5-1.2c0-0.1,0.1-0.2,0.1-0.2c0.1,0,0.1-0.1,0.2-0.1c0.1,0,0.1,0,0.2,0c0.1,0,0.1,0,0.2,0.1
			l1.6,0.6l-0.2,0.4c0,0-0.1-0.1-0.1-0.1c0,0-0.1-0.1-0.2-0.1l-0.8-0.3c-0.1,0-0.1,0-0.1,0c0,0-0.1,0-0.1,0.1c0,0,0,0.1-0.1,0.1
			l-0.4,0.9c0,0.1,0,0.1,0,0.1c0,0,0,0.1,0,0.1s0.1,0.1,0.1,0.1l0.2,0.1c0.1,0,0.1,0,0.2,0c0,0,0.1-0.1,0.1-0.1l0.1-0.4l-0.2-0.1
			c-0.1,0-0.2-0.1-0.3-0.1l0.2-0.4l1.3,0.5c-0.1,0.1-0.2,0.1-0.2,0.3l-0.3,0.6c-0.1,0.1-0.1,0.2,0,0.3l-0.7-0.3c0-0.1,0-0.1,0.1-0.2
			c0,0.1-0.1,0.1-0.1,0.1c0,0-0.1,0-0.1,0c0,0-0.1,0-0.2-0.1l-0.6-0.2c-0.2-0.1-0.3-0.2-0.4-0.3S242.4,39.2,242.5,39.1z"/>
		<path class="st3" d="M244.9,40.2l0.6-1.4c0-0.1,0.1-0.2,0-0.3l1,0.4c-0.1,0.1-0.2,0.1-0.2,0.3l-0.6,1.4l0.7,0.3
			c0.1,0,0.2,0.1,0.3,0l-0.2,0.4l-1.8-0.7c0,0,0.1,0,0.1-0.1C244.8,40.3,244.8,40.3,244.9,40.2z"/>
		<path class="st3" d="M246.9,41l0.6-1.4c0-0.1,0.1-0.2,0-0.3l1.9,0.8l-0.2,0.5c0-0.1-0.2-0.2-0.3-0.3l-0.6-0.3l-0.2,0.5l0.6,0.3
			c0.1,0,0.2,0.1,0.3,0.1l-0.1,0.3c-0.1,0-0.1-0.1-0.2-0.1l-0.7-0.3l-0.2,0.5l0.8,0.3c0,0,0.1,0,0.1,0c0,0,0.1,0,0.2,0l-0.2,0.5
			l-1.9-0.8c0,0,0.1,0,0.1-0.1C246.9,41.2,246.9,41.1,246.9,41z"/>
	</g>
	<path class="st4" d="M233.6,33.6l1.5,0.6l-0.2,0.6c0,0,0-0.1-0.2-0.2c-0.1-0.1-0.6-0.2-0.7-0.3c0,0-0.1,0-0.1,0
		c-0.1,0-0.1,0-0.2,0.1c-0.1,0.1,0,0.2,0.1,0.3c0.1,0,0.3,0.1,0.4,0.2c0,0,0.1,0,0.1,0c0.1,0,0.6,0.3,0.4,0.8
		c-0.1,0.3-0.4,0.5-0.6,0.5c-0.2,0-0.3,0-0.5-0.1l-1.3-0.5l0.3-0.7c0,0,0,0.1,0.1,0.2s0.8,0.3,0.8,0.3s0.2,0.1,0.3-0.1
		c0.1-0.2-0.1-0.3-0.1-0.3c0,0-0.2-0.1-0.4-0.2c-0.1,0-0.2-0.1-0.2-0.2c-0.1-0.1-0.2-0.3-0.1-0.7C233.1,33.4,233.6,33.6,233.6,33.6z
		"/>
	<path class="st1" d="M234.6,34.2L234.6,34.2l-1-0.5c0,0,0,0,0,0c0,0-0.3-0.1-0.4,0.2c0,0,0,0,0,0c0,0.1-0.1,0.2,0,0.4
		c0-0.1,0-0.2,0.1-0.3c0-0.1,0.1-0.2,0.3-0.2c0,0,0.1,0,0.1,0C233.8,33.8,234.6,34.2,234.6,34.2z"/>
	<path class="st1" d="M232.5,35.5L232.5,35.5l0.2-0.2l0.8,0.3c0,0,0.2,0,0.3,0c0.1,0,0.1-0.1,0.1-0.2c0-0.1,0-0.1,0-0.2
		c0,0.1,0,0.2-0.1,0.3c-0.1,0.1-0.2,0.1-0.3,0.1c0,0-0.1,0-0.1,0c-0.2-0.1-0.7-0.3-0.7-0.3s0,0-0.1-0.1c0,0,0,0,0,0L232.5,35.5z"/>
	<path class="st1" d="M235.5,34.5c0,0,0,0-0.1,0.3c-0.1,0.3-0.6,1.5-0.6,1.5s0,0.1-0.1,0.1l0.1,0c0,0,0.1-0.1,0.1-0.2
		c0-0.1,0.6-1.4,0.6-1.4l0.1-0.3L235.5,34.5z"/>
	<path class="st1" d="M245.6,38.6c0,0,0,0-0.1,0.3c-0.1,0.3-0.6,1.5-0.6,1.5s0,0.1-0.1,0.1l0.1,0c0,0,0,0,0,0c0,0,0.1-0.1,0.1-0.2
		c0-0.1,0.6-1.4,0.6-1.4L245.6,38.6C245.7,38.6,245.7,38.6,245.6,38.6L245.6,38.6z"/>
	<path class="st1" d="M239.6,37.7c0-0.1,0.4-1.1,0.4-1.1l0.1-0.3l-0.1,0c0,0,0,0,0,0.2c-0.1,0.2-0.1,0.2-0.5,1.3"/>
	<path class="st1" d="M236.9,36.6c0-0.1,0.4-1.1,0.4-1.1l0.1-0.3l-0.1,0c0,0,0,0,0,0.2c-0.1,0.2-0.1,0.2-0.5,1.3"/>
	<path class="st1" d="M236,36.7C236,36.7,236,36.7,236,36.7c0.1,0.1,0.2,0.1,0.2,0.1c0,0,0,0,0,0l0-0.1c0,0,0,0-0.1,0
		C236.1,36.7,236.1,36.7,236,36.7c0,0-0.1-1.7-0.1-1.7l-0.1,0"/>
	<path class="st1" d="M241.3,36.8c-0.1,0-0.5-0.3-0.7,0.2c-0.2,0.4-0.3,0.9-0.4,1.1c0,0.1,0,0.1,0,0.2c0,0.1,0.1,0.2,0.2,0.2
		c-0.1-0.1-0.1-0.2-0.1-0.3c0-0.1,0.1-0.2,0.4-1c0,0,0.1-0.4,0.5-0.3c0.4,0.1,1.3,0.5,1.3,0.5l0-0.1"/>
	<path class="st1" d="M243.7,37.8c-0.1,0-0.5-0.3-0.7,0.2c-0.2,0.4-0.4,0.9-0.4,1.1c0,0.1,0,0.1,0,0.2c0,0.1,0.1,0.2,0.2,0.2
		c-0.1-0.1-0.1-0.2-0.1-0.3c0-0.1,0.1-0.2,0.4-1.1c0,0,0.1-0.4,0.5-0.3c0.4,0.2,1.3,0.5,1.3,0.5l0-0.1"/>
	<path class="st1" d="M247.7,39.4l1.6,0.6l0,0.1l-1.5-0.6l-0.7,1.7c0,0-0.1,0.1-0.1,0.1c0,0,0,0,0.1-0.1S247.7,39.5,247.7,39.4
		C247.7,39.5,247.7,39.5,247.7,39.4z"/>
	<path class="st1" d="M248,40.6l0.9,0.4l0-0.1L248,40.6C247.9,40.5,248,40.6,248,40.6z"/>
	<path class="st1" d="M247.6,41.5l0.9,0.4c0,0,0.1,0,0.1,0C248.7,41.8,247.6,41.4,247.6,41.5C247.6,41.4,247.6,41.5,247.6,41.5z"/>
	<path class="st1" d="M244.9,40.5l1.5,0.6c0,0,0,0,0.1-0.1c-0.1,0-0.1,0-0.1,0C246.3,40.9,244.9,40.4,244.9,40.5L244.9,40.5z"/>
	<path class="st1" d="M237.9,37.5c-0.3-0.2-0.2-0.5-0.2-0.5l0.5-1.4l-0.1,0c0,0,0,0,0,0.1c0,0.1-0.5,1.3-0.5,1.3
		S237.5,37.3,237.9,37.5c0.1,0.1,0.2,0.1,0.2,0.1s0,0,0-0.1C238,37.5,238,37.5,237.9,37.5z"/>
</g>
<path class="st0" d="M4.8,33.4c0,0,6.5-6.3,11.9-7.1c1.5-0.1,2.8-0.4,4.5,1.6c0.3,0.5,0.9,1.5,0.9,2.1c-0.2,0.5-0.8,1-0.6,1.4
	s0.3,0.7,0.7,0.9c0.3,0.3,3,2.6,3.2,3.3c0.2,0.8-0.1,1.1,0,1.3c0.1,0.2,0.4,1.3,1.2,2.4s17.6,28.5,18.7,30.3
	c1.1,1.8,6.8,11.4,12,12.6c0.5,0.2,5.8,3.1,8,6.5c2,3.5,30.6,60.2,30.6,60.2s3.7,6.9,4.1,8.2c0.4,1.3,1.3,3,1.2,4.1
	c-0.1,1.1-0.8,1.5-2.1,2.2s-30.9,15.6-30.9,15.6s-1.3,0.9-2.7-1c-1.4-1.9-4.2-5.8-5.3-8.3c-1-2.5-18.2-38.1-19.5-40
	c-1.2-2.4-10.8-20.5-11.1-21c-0.3-0.5-2.2-3.4-1.5-7.6c0.3-4.5,1.1-9.4-0.5-13.7c-1.7-4.3-8-18.7-8.4-19.6
	c-0.4-0.9-6.7-15.8-7.4-17.3C11,49,9.5,46.1,9.1,45.4c-0.3-0.3-1.4-0.6-1.5-1.6S7.3,40.5,7.1,40s-0.5-1.5-0.7-1.4
	c-0.1,0-0.3,0-0.5-0.1c-0.5-0.2-1.1-0.9-1.5-2.3C4.1,35.5,3.8,34.8,4.8,33.4z"/>
<path class="st1" d="M5.8,38.5c0,0,0.5-0.7,0.5-0.9s0.2-0.9,0.6-0.9c0.4,0,1.4-0.7,1.6-1c0.3-0.3,0.4-0.9,0.9-0.9
	c0.4,0,1.6-0.6,1.7-0.9c0.1-0.3,0.9-1,1.2-0.7c0.3,0.3,1.3-0.8,1.3-0.9c0-0.1,0.6-0.6,0.9-0.5c0.3,0.2,1-0.2,1.1-0.5
	c0.1-0.3,0.9-0.9,1.2-0.6c0.3,0.3,1.4-0.3,1.5-0.5c0.1-0.3,0.6-0.9,1-0.5c0.4,0.4,0.6-0.5,1-0.5s0.5,0.3,0.7,0.4
	c0.2,0,0.7,0.6,0.8,0.6c0,0,0.2-0.8-0.2-1.3c-0.3-0.6-1.4-1.8-1.4-1.8l-1.5-0.7l-1.7,0L14.3,27L11,28.6l-3.2,2.3l-2.9,2.5l-0.8,2
	l0.6,2.1L5.8,38.5z"/>
<path class="st2" d="M8.7,45.1c0,0,0,0.3,0.7-0.1c0.7-0.3,2-2.1,3.1-2.8c1.1-0.8,9.6-5.3,11.4-5.1s1.5-0.1,1.5-0.1"/>
<path class="st2" d="M10.6,48.4c0,0,5.2-6.6,16.2-8.5"/>
<path class="st2" d="M23.5,77.8c0,0,10.2-8.7,20.3-10.2"/>
<path class="st2" d="M24.8,80.9c0,0,7.7-7.3,20.8-10.5"/>
<g id="snuggle_4_">
	<g>
		<path class="st3" d="M21.1,62.1l-0.7-1.4c-0.1-0.1-0.1-0.2-0.2-0.3l1.1-0.5l1.6,1.2l-0.7-1.3c-0.1-0.1-0.1-0.2-0.2-0.3l0.5-0.2
			c0,0.1,0,0.2,0.1,0.3l0.9,1.7l-1,0.5l-1.6-1.2l0.7,1.3c0.1,0.1,0.1,0.2,0.2,0.3l-0.5,0.2c0,0,0-0.1,0-0.1
			C21.2,62.2,21.1,62.2,21.1,62.1z"/>
		<path class="st3" d="M23.5,60.5l-0.6-1.1c-0.1-0.1-0.1-0.2-0.2-0.3l0.9-0.5c0,0.1,0,0.2,0.1,0.3l0.6,1.1c0,0.1,0.1,0.1,0.1,0.1
			c0,0,0.1,0,0.1,0c0,0,0.1,0,0.1,0l0.6-0.3c0.1,0,0.1-0.1,0.1-0.1c0,0,0-0.1,0-0.1c0,0,0-0.1-0.1-0.1l-0.6-1.1
			c-0.1-0.1-0.1-0.2-0.2-0.3l0.5-0.2c0,0.1,0,0.2,0.1,0.3l0.6,1.1c0,0.1,0.1,0.2,0.1,0.2c0,0.1,0,0.1,0,0.2c0,0.1-0.1,0.1-0.1,0.2
			c-0.1,0.1-0.1,0.1-0.2,0.1l-1.1,0.5c-0.2,0.1-0.3,0.1-0.5,0C23.7,60.8,23.6,60.7,23.5,60.5z"/>
		<path class="st3" d="M26,59.4l-0.6-1.2c0-0.1-0.1-0.2-0.1-0.2c0-0.1,0-0.1,0-0.2c0-0.1,0.1-0.1,0.1-0.1c0.1,0,0.1-0.1,0.2-0.1
			l1.5-0.8l0.2,0.4c-0.1,0-0.1,0-0.2,0c0,0-0.1,0-0.2,0.1l-0.8,0.4c-0.1,0-0.1,0.1-0.1,0.1s0,0.1,0,0.1c0,0,0,0.1,0.1,0.1l0.4,0.9
			c0,0.1,0.1,0.1,0.1,0.1c0,0,0.1,0,0.1,0s0.1,0,0.1,0l0.2-0.1c0.1,0,0.1-0.1,0.1-0.1c0,0,0-0.1-0.1-0.2l-0.2-0.3l-0.2,0.1
			c-0.1,0-0.2,0.1-0.2,0.2l-0.2-0.4l1.3-0.6c0,0.1,0,0.2,0.1,0.3l0.3,0.6c0.1,0.1,0.1,0.2,0.2,0.3l-0.7,0.3c0,0-0.1-0.1-0.1-0.2
			c0,0.1,0,0.1,0,0.2c0,0,0,0.1-0.1,0.1c0,0-0.1,0.1-0.2,0.1l-0.6,0.3c-0.2,0.1-0.3,0.1-0.4,0.1C26.2,59.7,26.1,59.6,26,59.4z"/>
		<path class="st3" d="M28.3,58.3l-0.6-1.2c0-0.1-0.1-0.2-0.1-0.2c0-0.1,0-0.1,0-0.2c0-0.1,0.1-0.1,0.1-0.1c0.1,0,0.1-0.1,0.2-0.1
			l1.5-0.8l0.2,0.4c-0.1,0-0.1,0-0.2,0c0,0-0.1,0-0.2,0.1l-0.8,0.4c-0.1,0-0.1,0.1-0.1,0.1c0,0,0,0.1,0,0.1c0,0,0,0.1,0.1,0.1
			l0.4,0.9c0,0.1,0.1,0.1,0.1,0.1c0,0,0.1,0,0.1,0s0.1,0,0.1,0l0.2-0.1c0.1,0,0.1-0.1,0.1-0.1c0,0,0-0.1-0.1-0.2l-0.2-0.3l-0.2,0.1
			c-0.1,0-0.2,0.1-0.2,0.2l-0.2-0.4l1.3-0.6c0,0.1,0,0.2,0.1,0.3l0.3,0.6c0.1,0.1,0.1,0.2,0.2,0.3L30,57.9c0,0-0.1-0.1-0.1-0.2
			c0,0.1,0,0.1,0,0.2c0,0,0,0.1-0.1,0.1c0,0-0.1,0.1-0.2,0.1l-0.6,0.3c-0.2,0.1-0.3,0.1-0.4,0.1C28.5,58.5,28.4,58.4,28.3,58.3z"/>
		<path class="st3" d="M30.8,57.2l-0.7-1.4c-0.1-0.1-0.1-0.2-0.2-0.3l0.9-0.5c0,0.1,0,0.2,0.1,0.3l0.7,1.4l0.7-0.4
			c0.1-0.1,0.2-0.1,0.2-0.2l0.1,0.4l-1.7,0.9c0,0,0-0.1,0-0.1C30.8,57.3,30.8,57.3,30.8,57.2z"/>
		<path class="st3" d="M32.7,56.2L32,54.8c-0.1-0.1-0.1-0.2-0.2-0.3l1.8-0.9l0.2,0.4c-0.1,0-0.3,0-0.4,0.1l-0.6,0.3l0.2,0.5l0.6-0.3
			c0.1-0.1,0.2-0.1,0.3-0.1l0.2,0.3c-0.1,0-0.1,0.1-0.2,0.1l-0.7,0.3l0.3,0.5l0.7-0.4c0,0,0.1,0,0.1-0.1s0.1-0.1,0.1-0.2l0.2,0.4
			l-1.9,0.9c0,0,0-0.1,0-0.1C32.8,56.3,32.8,56.3,32.7,56.2z"/>
	</g>
	<path class="st4" d="M18.4,61.3l1.5-0.7l0.3,0.5c0,0-0.1-0.1-0.3,0c-0.1,0.1-0.5,0.3-0.7,0.3c0,0-0.1,0-0.1,0.1c0,0-0.1,0.1,0,0.2
		c0.1,0.1,0.2,0.1,0.2,0.1c0.1,0,0.3-0.1,0.4-0.2c0,0,0,0,0.1,0c0.1,0,0.6-0.3,0.9,0.3c0.2,0.3,0.1,0.6,0,0.8
		c-0.1,0.1-0.2,0.3-0.4,0.3l-1.2,0.6L18.7,63c0,0,0.1,0.1,0.2,0c0.1-0.1,0.7-0.4,0.7-0.4s0.2-0.1,0.1-0.3c-0.1-0.2-0.3-0.1-0.3-0.1
		c0,0-0.2,0.1-0.4,0.2c-0.1,0-0.2,0.1-0.3,0.1c-0.2,0-0.4-0.1-0.6-0.4C18,61.6,18.4,61.3,18.4,61.3z"/>
	<path class="st1" d="M19.5,61L19.5,61l-1,0.5c0,0,0,0,0,0c0,0-0.2,0.2-0.1,0.4c0,0,0,0,0,0c0,0.1,0.1,0.2,0.3,0.3
		c-0.1-0.1-0.2-0.1-0.2-0.3c0-0.1,0-0.2,0.1-0.4c0,0,0-0.1,0.1-0.1C18.7,61.3,19.5,61,19.5,61z"/>
	<path class="st1" d="M19.1,63.4L19.1,63.4l0-0.3l0.7-0.4c0,0,0.1-0.1,0.2-0.3c0-0.1,0-0.1,0-0.2c0-0.1-0.1-0.1-0.2-0.2
		c0.1,0.1,0.1,0.2,0.1,0.2c0,0.1,0,0.2-0.1,0.3c0,0-0.1,0.1-0.1,0.1c-0.2,0.1-0.7,0.3-0.7,0.3s0,0-0.1,0c0,0,0,0,0,0L19.1,63.4z"/>
	<path class="st1" d="M20.3,60.5c0,0,0,0,0.2,0.2c0.1,0.2,0.7,1.4,0.7,1.4s0,0.1,0,0.2l0.1,0c0,0,0-0.1-0.1-0.2
		c0-0.1-0.7-1.3-0.7-1.3L20.3,60.5L20.3,60.5z"/>
	<path class="st1" d="M30,55.6c0,0,0,0,0.2,0.2c0.1,0.2,0.7,1.4,0.7,1.4s0,0.1,0,0.2l0.1,0c0,0,0,0,0,0c0,0-0.1-0.1-0.1-0.2
		c0-0.1-0.7-1.3-0.7-1.3l-0.1-0.3C30.1,55.5,30.1,55.5,30,55.6L30,55.6z"/>
	<path class="st1" d="M25.4,59.6c0-0.1-0.5-1.1-0.5-1.1l-0.1-0.2l-0.1,0c0,0,0,0,0.1,0.2c0.1,0.2,0.1,0.2,0.6,1.2"/>
	<path class="st1" d="M22.9,60.9c0-0.1-0.5-1.1-0.5-1.1l-0.1-0.2l-0.1,0c0,0,0,0,0.1,0.2c0.1,0.2,0.1,0.2,0.6,1.2"/>
	<path class="st1" d="M22.3,61.6c0,0,0,0,0.1,0c0.1,0,0.1-0.1,0.1-0.1c0,0,0,0,0,0l0-0.1c0,0,0,0-0.1,0
		C22.4,61.5,22.4,61.6,22.3,61.6c0-0.1-1.3-1.1-1.3-1.1l-0.1,0"/>
	<path class="st1" d="M25.9,57.6c-0.1,0.1-0.5,0.2-0.3,0.7c0.2,0.4,0.4,0.8,0.5,1c0,0.1,0.1,0.1,0.1,0.1c0.1,0,0.2,0,0.3,0
		c-0.2,0-0.2,0-0.3-0.2c-0.1-0.1-0.1-0.2-0.5-1c0,0-0.2-0.4,0.1-0.6c0.4-0.2,1.2-0.6,1.2-0.6l0-0.1"/>
	<path class="st1" d="M28.2,56.5c-0.1,0.1-0.6,0.2-0.3,0.7c0.2,0.4,0.4,0.9,0.5,1.1c0,0.1,0.1,0.1,0.1,0.2c0.1,0.1,0.2,0,0.3,0
		c-0.2,0-0.2,0-0.3-0.2c-0.1-0.1-0.1-0.2-0.5-1c0,0-0.2-0.4,0.1-0.6c0.4-0.2,1.3-0.6,1.3-0.6l0-0.1"/>
	<path class="st1" d="M32.1,54.6l1.5-0.8l0,0.1l-1.4,0.7l0.8,1.6c0,0,0,0.1,0,0.1c0,0,0,0,0-0.1C32.9,56.2,32.1,54.6,32.1,54.6
		C32.1,54.6,32.1,54.6,32.1,54.6z"/>
	<path class="st1" d="M33.1,55.1l0.9-0.4l0-0.1L33.1,55.1C33,55.1,33.1,55.1,33.1,55.1z"/>
	<path class="st1" d="M33.5,56l0.9-0.5c0,0,0.1-0.1,0.1-0.1C34.5,55.4,33.5,55.9,33.5,56C33.5,55.9,33.5,56,33.5,56z"/>
	<path class="st1" d="M31,57.4l1.4-0.7c0,0,0,0,0-0.1c0,0,0,0-0.1,0.1C32.3,56.6,31,57.3,31,57.4L31,57.4z"/>
	<path class="st1" d="M24.1,60.7c-0.3,0.2-0.5-0.2-0.5-0.2L23,59.1l-0.1,0c0,0,0,0,0.1,0.1s0.6,1.2,0.6,1.2S23.8,60.9,24.1,60.7
		c0.1,0,0.2-0.1,0.2-0.1s0,0-0.1,0C24.3,60.6,24.2,60.6,24.1,60.7z"/>
</g>
<image style="overflow:visible;" width="768" height="1024" id="label_1_" xlink:href="../../../../FIP/logo/logo_FULL.png"  transform="matrix(4.595372e-02 -2.323401e-02 2.323401e-02 4.595372e-02 33.0062 113.6005)">
</image>
<image style="overflow:visible;" width="768" height="1024" id="label" xlink:href="../../../../FIP/logo/logo_FULL.png"  transform="matrix(4.741945e-02 2.007385e-02 -2.007385e-02 4.741945e-02 204.7976 78.2615)">
</image>
</svg>
